<?xml version="1.0" encoding="UTF-8" standalone="no"?><!DOCTYPE svg PUBLIC "-//W3C//DTD SVG 1.1//EN" "http://www.w3.org/Graphics/SVG/1.1/DTD/svg11.dtd"><svg width="100%" height="100%" viewBox="0 0 500 95" version="1.1" xmlns="http://www.w3.org/2000/svg" xmlns:xlink="http://www.w3.org/1999/xlink" xml:space="preserve" xmlns:serif="http://www.serif.com/" style="fill-rule:evenodd;clip-rule:evenodd;stroke-linejoin:round;stroke-miterlimit:1.41421;"><rect id="Artboard2" x="0" y="0" width="500" height="95" style="fill:none;"/><clipPath id="_clip1"><rect id="Artboard21" serif:id="Artboard2" x="0" y="0" width="500" height="95"/></clipPath><g clip-path="url(#_clip1)"><g id="logo"><path d="M29.237,87.334c0,4.209 -3.419,7.623 -7.63,7.623c-4.214,0 -7.632,-3.414 -7.632,-7.623l0,-48.372c0,-4.209 3.418,-7.621 7.632,-7.621c4.211,0 7.63,3.412 7.63,7.621l0,48.372Z" style="fill:#2357a5;fill-rule:nonzero;"/><path d="M86.76,31.344l-48.43,0c-4.214,0 -7.631,3.413 -7.631,7.621c0,4.213 3.417,7.622 7.631,7.622l16.585,0l0,40.792c0,4.205 3.414,7.621 7.629,7.621c4.213,0 7.633,-3.416 7.633,-7.621l0,-40.792l16.583,0c4.213,0 7.63,-3.409 7.63,-7.622c0,-4.208 -3.417,-7.621 -7.63,-7.621" style="fill:#2357a5;fill-rule:nonzero;"/><path d="M101.895,25.5c8.422,13.882 -3.599,36.757 -27.038,52.762l0,0.004c1.609,-0.858 3.212,-1.767 4.809,-2.734c26.48,-16.027 40.682,-40.997 31.719,-55.773c-8.963,-14.779 -37.698,-13.767 -64.18,2.26c-1.601,0.969 -3.153,1.972 -4.663,3.002c25.057,-13.348 50.932,-13.401 59.353,0.479" style="fill:#f26721;fill-rule:nonzero;"/><path d="M40.366,12.075c-0.615,-1.979 -2.722,-3.083 -4.703,-2.47c-1.702,0.529 -2.755,2.154 -2.629,3.856l-3.788,1.175c-1.235,-2.916 -4.125,-4.969 -7.498,-4.969c-2.034,0 -3.89,0.752 -5.317,1.984l-5.943,-5.92c0.902,-1.451 0.725,-3.379 -0.537,-4.635c-1.47,-1.464 -3.85,-1.461 -5.316,0.007c-1.463,1.468 -1.462,3.846 0.009,5.309c1.262,1.256 3.191,1.428 4.641,0.525l5.983,5.96c-1.035,1.362 -1.654,3.053 -1.654,4.896c0,1.122 0.224,2.187 0.638,3.161l-7.837,4.855c-1.205,-1.209 -3.126,-1.477 -4.639,-0.539c-1.761,1.093 -2.306,3.407 -1.21,5.169c1.093,1.761 3.41,2.303 5.172,1.21c1.516,-0.939 2.127,-2.778 1.577,-4.391l7.767,-4.816c1.47,2.098 3.906,3.474 6.666,3.474c4.492,0 8.133,-3.637 8.133,-8.123c0,-0.521 -0.055,-1.03 -0.148,-1.525l3.806,-1.179c0.865,1.471 2.653,2.214 4.355,1.685c1.982,-0.615 3.09,-2.718 2.472,-4.699" style="fill:#2357a5;fill-rule:nonzero;"/></g><text x="130.324px" y="57.54px" style="font-family:'AvenirNext-Medium', 'Avenir Next', sans-serif;font-weight:500;font-size:34.003px;">Informa<tspan x="251.169px " y="57.54px ">t</tspan>ion <tspan x="319.378px 335.461px 354.945px " y="57.54px 57.54px 57.54px ">Tec</tspan>hnology</text><text x="131.442px" y="84.052px" style="font-family:'AvenirNextCondensed-Regular', 'Avenir Next Condensed', sans-serif;font-stretch:condensed;font-size:20.615px;">King Mongk<tspan x="220.232px " y="84.052px ">u</tspan>t&apos;s Institute of<tspan x="328.544px 331.863px 338.171px 346.891px " y="84.052px 84.052px 84.052px 84.052px "> Tec</tspan>hnology Ladkr<tspan x="456.028px " y="84.052px ">a</tspan>bang</text><text x="131.563px" y="25.042px" style="font-family:'AvenirNext-Medium', 'Avenir Next', sans-serif;font-weight:500;font-size:20px;">F<tspan x="141.963px 152.803px " y="25.042px 25.042px ">ac</tspan>ulty of</text></g></svg>